<svg width="495" height="495" viewBox="0 0 495 495" fill="none" xmlns="http://www.w3.org/2000/svg">
<g style="mix-blend-mode:lighten">
<rect width="46.5385" height="207.308" transform="matrix(4.37121e-08 1 1 -4.37107e-08 140.673 225.289)" fill="white"/>
</g>
<g style="mix-blend-mode:lighten">
<rect width="46.5385" height="207.308" transform="matrix(-1 -8.74228e-08 -8.74241e-08 1 268.643 148.044)" fill="white"/>
</g>
<g style="mix-blend-mode:lighten">
<rect width="41.5166" height="129.739" transform="matrix(-0.707112 0.707101 0.707112 0.707101 403.261 155.764)" fill="#0066FF"/>
</g>
<g style="mix-blend-mode:lighten">
<rect width="41.5166" height="129.739" transform="matrix(0.707112 0.707101 0.707112 -0.707101 373.904 309.887)" fill="#FFF500"/>
</g>
<g style="mix-blend-mode:lighten">
<rect width="41.5166" height="129.739" transform="matrix(0.707112 -0.707101 -0.707112 -0.707101 91.7405 339.236)" fill="#00F0FF"/>
</g>
<g style="mix-blend-mode:lighten">
<rect width="41.5166" height="129.739" transform="matrix(-0.707112 -0.707101 -0.707112 0.707102 121.1 185.119)" fill="#FF00D6"/>
</g>
<g style="mix-blend-mode:lighten">
<rect width="41.5166" height="129.739" transform="matrix(0.707112 0.707101 0.707112 -0.707101 155.763 91.739)" fill="#00FF66"/>
</g>
<g style="mix-blend-mode:lighten">
<rect width="41.5166" height="129.74" transform="matrix(0.707112 -0.707102 -0.707112 -0.707101 309.887 121.097)" fill="#FF0000"/>
</g>
<g style="mix-blend-mode:lighten">
<rect width="41.5166" height="129.739" transform="matrix(-0.707112 -0.707101 -0.707112 0.707102 339.238 403.261)" fill="#7000FF"/>
</g>
<g style="mix-blend-mode:lighten">
<rect width="41.5166" height="129.74" transform="matrix(-0.707112 0.707102 0.707112 0.707101 185.119 373.897)" fill="#FF7A00"/>
</g>
</svg>
