<svg width="54" height="54" viewBox="0 0 54 54" fill="none" xmlns="http://www.w3.org/2000/svg">
<rect width="5.03236" height="22.6453" transform="matrix(-1 0 0 1 29.1565 15.8601)" fill="white"/>
<rect width="5.03229" height="22.6456" transform="matrix(4.37121e-08 1 1 -4.37107e-08 15.3178 24.6667)" fill="white"/>
<rect width="4.52909" height="14.1534" transform="matrix(-0.707112 0.707101 0.707112 0.707101 43.9919 16.9924)" fill="#FF0000"/>
<rect width="4.52909" height="14.1534" transform="matrix(0.707112 0.707101 0.707112 -0.707101 40.7893 33.8057)" fill="#FF0000"/>
<rect width="4.52909" height="14.1534" transform="matrix(0.707112 -0.707101 -0.707112 -0.707101 10.008 37.0076)" fill="#FF0000"/>
<rect width="4.52909" height="14.1534" transform="matrix(-0.707112 -0.707101 -0.707112 0.707102 13.2107 20.1948)" fill="#FF0000"/>
<path fill-rule="evenodd" clip-rule="evenodd" d="M20.1948 13.2104L16.9922 10.0079L27.0002 0L30.2028 3.20252L30.2028 3.20258L37.0084 10.0081L33.8058 13.2106L27.0002 6.40511L20.1948 13.2104Z" fill="#FF0000" fill-opacity="0.25"/>
<path fill-rule="evenodd" clip-rule="evenodd" d="M16.992 43.9913L20.1945 40.7888L27.0002 47.5943L33.805 40.7896L37.0075 43.9921L26.9995 54L23.7969 50.7975L23.7976 50.7968L16.992 43.9913Z" fill="#FF0000" fill-opacity="0.25"/>
</svg>
